<svg fill="#FFFFFF" xmlns="http://www.w3.org/2000/svg"  viewBox="0 0 48 48" width="48px" height="48px"><path d="M 15 3 C 12.250484 3 10 5.2504839 10 8 L 10 45 A 1.0001 1.0001 0 0 0 11.609375 45.792969 L 25.904297 34.796875 A 1.0006638 1.0006638 0 1 0 24.683594 33.210938 L 12 42.96875 L 12 8 C 12 6.3315161 13.331516 5 15 5 L 33 5 C 34.668484 5 36 6.3315161 36 8 L 36 42.96875 L 27.681641 36.570312 A 1.0001 1.0001 0 1 0 26.462891 38.15625 L 36.390625 45.792969 A 1.0001 1.0001 0 0 0 38 45 L 38 8 C 38 5.2504839 35.749516 3 33 3 L 15 3 z M 24.001953 11 A 1.0001 1.0001 0 0 0 23.123047 11.539062 L 20.865234 15.876953 L 15.949219 16.740234 A 1.0001 1.0001 0 0 0 15.423828 18.441406 L 18.919922 21.857422 L 18.146484 26.845703 A 1.0001 1.0001 0 0 0 19.601562 27.882812 L 24.007812 25.554688 L 28.412109 27.884766 A 1.0001 1.0001 0 0 0 29.869141 26.847656 L 29.095703 21.859375 L 32.589844 18.443359 A 1.0001 1.0001 0 0 0 32.064453 16.744141 L 27.152344 15.876953 L 24.896484 11.539062 A 1.0001 1.0001 0 0 0 24.001953 11 z M 24.009766 14.166016 L 25.605469 17.238281 A 1.0001 1.0001 0 0 0 26.318359 17.761719 L 29.798828 18.375 L 27.328125 20.789062 A 1.0001 1.0001 0 0 0 27.039062 21.65625 L 27.587891 25.185547 L 24.474609 23.541016 A 1.0001 1.0001 0 0 0 23.541016 23.541016 L 20.427734 25.183594 L 20.974609 21.654297 A 1.0001 1.0001 0 0 0 20.685547 20.787109 L 18.214844 18.373047 L 21.697266 17.761719 A 1.0001 1.0001 0 0 0 22.410156 17.238281 L 24.009766 14.166016 z"/></svg>